<?xml version="1.0" encoding="iso-8859-1"?>
<!-- Generator: Adobe Illustrator 16.0.0, SVG Export Plug-In . SVG Version: 6.00 Build 0)  -->
<!DOCTYPE svg PUBLIC "-//W3C//DTD SVG 1.1//EN" "http://www.w3.org/Graphics/SVG/1.1/DTD/svg11.dtd">
<svg version="1.1" id="Capa_1" xmlns="http://www.w3.org/2000/svg" xmlns:xlink="http://www.w3.org/1999/xlink" x="0px" y="0px"
	 width="612.013px" height="612.012px" viewBox="0 0 612.013 612.012" style="enable-background:new 0 0 612.013 612.012;"
	 xml:space="preserve">
<g style = "fill:white">
	<path d="M236.211,611.606c-1.6,0-3.2-0.699-4.3-2l-103.1-126.799l-126.8-103.1c-1.2-1-1.9-2.4-2-4c-0.1-1.602,0.5-3.102,1.6-4.201
		l11.8-11.799c1.6-1.602,4-2,6-1.201l108.2,45.301l123.4-123.3l-212.7-166.3c-1.2-1-2-2.4-2.1-4c-0.1-1.6,0.5-3.1,1.6-4.2l30.5-30.5
		c1.6-1.6,3.9-2,6-1.2l272.2,110.7l127.7-127.7c37.7-37.7,70.8-56.9,98.2-56.9c0.5,0,1,0,1.5,0c17.199,0.4,25.899,8.8,27.199,10.1
		c7.301,7.3,11,16.6,10.9,27.6c-0.2,42-55.4,96.9-57.8,99.2l-127.601,127.8l110.801,272.2c0.8,2,0.399,4.4-1.2,6l-30.5,30.5
		c-1.101,1.1-2.601,1.699-4.2,1.6s-3-0.9-4-2.1l-166.4-212.701L218.211,473.407c-2.1,2.1-5.6,2.1-7.8,0c-2.1-2.1-2.1-5.6,0-7.801
		l117.2-117.199c1.101-1.1,2.601-1.699,4.2-1.6c1.601,0.1,3,0.9,4,2.1l166.4,212.699l23.6-23.6l-110.8-272.1c-0.8-2.1-0.4-4.4,1.2-6
		l130.3-130.3c0.6-0.6,54.4-54,54.5-91.4c0-8.1-2.5-14.6-7.7-19.8c-0.1-0.1-0.1-0.1-0.2-0.2c-0.199-0.2-6.399-6.5-20.1-6.7
		c-16.8-0.1-46.3,8.9-91,53.6l-130.3,130.3c-1.601,1.6-3.9,2-6,1.2l-272.2-110.9l-23.6,23.6l212.7,166.4c1.2,1,2,2.4,2.1,4
		c0.1,1.6-0.5,3.1-1.6,4.2l-130.3,130.301c-1.6,1.6-4,2-6,1.199l-108.2-45.301l-4.9,4.9l122.5,99.6c0.3,0.201,0.6,0.5,0.8,0.801
		l103.5,127.199c1.9,2.4,1.6,5.801-0.8,7.701C238.611,611.208,237.411,611.606,236.211,611.606z"/>
</g>
<g>
</g>
<g>
</g>
<g>
</g>
<g>
</g>
<g>
</g>
<g>
</g>
<g>
</g>
<g>
</g>
<g>
</g>
<g>
</g>
<g>
</g>
<g>
</g>
<g>
</g>
<g>
</g>
<g>
</g>
</svg>
